<svg width="240" height="240" viewBox="0 0 240 240" fill="none" xmlns="http://www.w3.org/2000/svg">
<path d="M0 120C0 53.7701 53.7701 0 120 0C186.23 0 240 53.7701 240 120C240 186.23 186.23 240 120 240C53.7701 240 0 186.23 0 120Z" fill="url(#paint0_radial_5_4)"/>
<path d="M0 120C69.6998 154.4 97.2998 134 120 120C140.5 105.8 193.9 94.4002 240 120C240 186.23 186.23 240 120 240C53.7701 240 0 186.23 0 120Z" fill="#24B3DF"/>
<path d="M240 120C170.3 154.4 142.7 134 120 120C99.5002 105.8 46.1002 94.4002 0 120C0 186.23 53.7701 240 120 240C186.23 240 240 186.23 240 120Z" fill="#0D96BF"/>
<path d="M240 120C170.3 154.4 142.7 134 120 120C99.5002 105.8 46.1002 94.4002 0 120C0 186.23 53.7701 240 120 240C186.23 240 240 186.23 240 120Z" fill="#0D96BF"/>
<path d="M227.4 173.4C157.7 207.8 142.7 177.2 120 163.2C99.5002 149 46.1002 94.4002 0 120C0 186.23 53.7701 240 120 240C184.9 237.8 216.7 191.6 227.4 173.4Z" fill="#0689B0"/>
<defs>
<radialGradient id="paint0_radial_5_4" cx="0" cy="0" r="1" gradientUnits="userSpaceOnUse" gradientTransform="translate(120 120) rotate(-0.690831) scale(132.71 119.991)">
<stop offset="0.0166667" stop-color="#CBF3FF"/>
<stop offset="1" stop-color="#5FDAFF"/>
</radialGradient>
</defs>
</svg>
